<mxfile host="app.diagrams.net" modified="2024-06-04T08:08:40.665Z" agent="Mozilla/5.0 (X11; Ubuntu; Linux x86_64; rv:126.0) Gecko/20100101 Firefox/126.0" version="24.4.13" etag="3v_8KLudAsvLzuIfDsX8" type="github">
  <diagram name="Page-1" id="2TM85c8_Qq76-kRjKyv6">
    <mxGraphModel>
      <root>
        <mxCell id="0" />
        <mxCell id="1" parent="0" />
      </root>
    </mxGraphModel>
  </diagram>
</mxfile>
